<svg xmlns="http://www.w3.org/2000/svg" width="50" height="50" viewBox="0 0 50 50" fill="none">
<path d="M45.1619 32.5601C43.8907 27.3448 41.7208 22.6183 38.8712 18.6435C37.9027 17.2924 36.855 16.0289 35.7375 14.8623L34.904 14H33.698H31.747H14.2346H4L4.83814 17.4399C5.73681 21.1243 7.27339 24.472 9.29424 27.2987C11.1521 29.8902 13.429 32.0528 16.0599 33.5837C17.3729 34.3492 18.7745 34.9533 20.2412 35.3683C21.708 35.7833 23.2446 36 24.8091 36H31.4769H32.7248H35.7654H46L45.1619 32.5601ZM32.7248 30.4297H31.4769H24.8137C23.7754 30.4297 22.765 30.2867 21.7825 30.0101C20.3064 29.5951 18.8863 28.8757 17.5499 27.8751C16.2135 26.8745 14.9749 25.5925 13.8854 24.0755C12.9308 22.7382 12.0973 21.2257 11.4222 19.5749H14.2346H31.747H32.4548C33.0927 20.2989 33.7027 21.0597 34.28 21.8713C36.0681 24.366 37.5674 27.2526 38.6756 30.4343H35.7654H32.7248V30.4297Z" fill="#D81F2C"/>
</svg>
