<svg xmlns="http://www.w3.org/2000/svg" width="252" height="29" viewBox="0 0 252 29" fill="none"><path d="M82.1303 10.8327C84.3341 12.4556 85.4331 14.927 85.4331 18.2411C85.4331 21.5553 84.3341 24.0266 82.1303 25.6495C79.9266 27.2724 76.7491 28.0867 72.5865 28.0867C68.4239 28.0867 65.2464 27.2781 63.0541 25.6495C60.8618 24.0266 59.7627 21.5553 59.7627 18.2411C59.7627 14.927 60.8618 12.4556 63.0541 10.8327C65.2464 9.20981 68.4239 8.39551 72.5865 8.39551C76.7491 8.39551 79.9323 9.20981 82.1303 10.8327ZM77.3812 22.0962C78.4347 21.1965 78.9586 19.9096 78.9586 18.2354C78.9586 16.5613 78.429 15.2743 77.3812 14.3746C76.3278 13.4749 74.7276 13.0251 72.5865 13.0251C70.4625 13.0251 68.8738 13.4749 67.8203 14.3746C66.7669 15.2743 66.243 16.5613 66.243 18.2354C66.243 19.9096 66.7669 21.1965 67.8203 22.0962C68.8738 22.996 70.4625 23.4458 72.5865 23.4458C74.7276 23.4458 76.3278 22.996 77.3812 22.0962Z" fill="white"/><path d="M97.323 21.1165H97.4768L102.972 8.99316H109.936L100.848 27.4829H93.9804L84.8922 8.99316H91.8336L97.323 21.1165Z" fill="white"/><path d="M117.293 16.0656H130.812V19.9777H117.293V23.2406H131.666V27.4886H111.388V8.99316H131.381V13.2127H117.293V16.0656Z" fill="white"/><path d="M157.752 27.4886H150.89L147.343 21.555H140.196V27.4886H134.291V8.99316H150.042C152.599 8.99316 154.444 9.49427 155.582 10.4965C156.721 11.4987 157.291 13.0248 157.291 15.0805C157.291 16.6521 156.943 17.8366 156.254 18.6395C155.565 19.4424 154.58 20.0004 153.299 20.3079V20.5129L157.752 27.4886ZM150.252 16.8913C150.588 16.5781 150.759 16.1055 150.759 15.4677C150.759 14.8299 150.588 14.3573 150.252 14.0555C149.916 13.7537 149.37 13.5999 148.607 13.5999H140.19V17.3582H148.607C149.364 17.3582 149.916 17.2045 150.252 16.8913Z" fill="white"/><path d="M181.241 13.7309H173.03V27.4829H167.125V13.7309H158.891V8.99316H181.241V13.7309Z" fill="white"/><path d="M196.781 24.5617H186.292L184.892 27.4886H178.366L187.716 8.99316H195.46L204.731 27.4886H198.205L196.781 24.5617ZM194.737 20.2852L191.605 13.8619H191.451L188.371 20.2852H194.737Z" fill="white"/><path d="M230.139 27.4886H222.708L216.336 19.1691L212.19 22.5117V27.4886H206.285V8.99316H212.19V16.5041L221.182 8.99316H228.949L220.789 15.5702L230.139 27.4886Z" fill="white"/><path d="M237.627 16.0656H251.146V19.9777H237.627V23.2406H252V27.4886H231.722V8.99316H251.715V13.2127H237.627V16.0656Z" fill="white"/><path d="M50.3385 23.8331C48.7839 17.3927 46.1303 11.5559 42.6454 6.64735C41.4609 4.97889 40.1797 3.41862 38.813 1.97794L37.7937 0.913086H36.3189H33.9329H12.5163H0L1.02499 5.16111C2.12401 9.71094 4.00316 13.8451 6.47453 17.3357C8.7466 20.536 11.5312 23.2067 14.7485 25.0972C16.3543 26.0425 18.0683 26.7884 19.8621 27.3009C21.6558 27.8134 23.535 28.0811 25.4483 28.0811H33.6027H35.1288H38.8472H51.3635L50.3385 23.8331ZM35.1288 21.2022H33.6027H25.454C24.1841 21.2022 22.9484 21.0257 21.7469 20.684C19.9418 20.1716 18.205 19.2832 16.5707 18.0475C14.9364 16.8119 13.4217 15.2288 12.0892 13.3554C10.9219 11.704 9.90256 9.83621 9.07687 7.79762H12.5163H33.9329H34.7985C35.5786 8.69164 36.3246 9.63121 37.0307 10.6334C39.2173 13.7141 41.0509 17.2788 42.4062 21.2079H38.8472H35.1288V21.2022Z" fill="#D81F2C"/></svg>
